# xmcd
#
# Track frame offsets: 
#        150
#        13289
#        25482
#        40326
#        71708
#        86681
#        98839
#        111025
#        128429
#        147675
#        159498
#        171418
#        183869
#        196618
#        208660
#        219763
#        232250
#        245979
#        264850
#
# Disc length: 3702 seconds
#
# Revision: 0
# Processed by: cddbd v1.5.2PL0 Copyright (c) Steve Scherf et al.
# Submitted via: ExactAudioCopy v0.95b3
#
DISCID=140e7413
DTITLE=Kent DuChaine - Rough Cut
DYEAR=2004
DGENRE=Blues
TTITLE0=Rock Island Line
TTITLE1=Drop Down Mama
TTITLE2=Help Me
TTITLE3=Wang Dang Doodle
TTITLE4=Catfish Blues
TTITLE5=Baby, Please Don't Go
TTITLE6=She Got Me Walking
TTITLE7=Bad Luck Child
TTITLE8=Parchment Farm Blues
TTITLE9=Lowdown On Lodi
TTITLE10=They're Red Hot
TTITLE11=Stop Breaking Down
TTITLE12=Who Do You Love?
TTITLE13=Stones In My Passway
TTITLE14=Walk On
TTITLE15=Love In Vain
TTITLE16=Ice Cream Man
TTITLE17=Georgia On My Mind
TTITLE18=Rock Island Line (Miles' Version)
EXTD=www.kentduchaine.com\n\nRecorded at La Maison Rouge Studio in For
EXTD=t Gaines, Georgia, US 2004\n\nThat's Kent's basement!\n\n\n\nJWB 
EXTD=October 2006\n\n
EXTT0=
EXTT1=
EXTT2=
EXTT3=
EXTT4=
EXTT5=
EXTT6=
EXTT7=
EXTT8=
EXTT9=
EXTT10=
EXTT11=
EXTT12=
EXTT13=
EXTT14=
EXTT15=
EXTT16=
EXTT17=
EXTT18=
PLAYORDER=
